<svg viewBox="0 0 60 60" xmlns="http://www.w3.org/2000/svg" xmlns:xlink="http://www.w3.org/1999/xlink" width="60.000000" height="60.000000" fill="none" customFrame="#000000">
	<path id="Star 3" d="M39.8211 18.7547C38.8722 18.6545 38.0485 18.0561 37.66 17.1846L32.4417 5.47768C31.4997 3.3645 28.5003 3.3645 27.5583 5.47768L22.34 17.1846C21.9515 18.0561 21.1278 18.6545 20.1789 18.7547L7.43241 20.1C5.13157 20.3428 4.20469 23.1955 5.92337 24.7444L15.4447 33.3249C16.1536 33.9638 16.4682 34.932 16.2702 35.8654L13.6108 48.4038C13.1307 50.6671 15.5573 52.4301 17.5615 51.2742L28.6644 44.8703C29.491 44.3936 30.509 44.3936 31.3356 44.8703L42.4385 51.2742C44.4427 52.4301 46.8693 50.6671 46.3892 48.4038L43.7298 35.8654C43.5318 34.932 43.8464 33.9638 44.5553 33.3249L54.0766 24.7444C55.7953 23.1955 54.8684 20.3429 52.5676 20.1L39.8211 18.7547ZM30 10.9434L33.5906 18.9985C33.7213 19.2917 33.8702 19.5736 34.0375 19.8442C34.1988 20.1053 34.3771 20.3558 34.5725 20.5958C34.7663 20.834 34.9736 21.0578 35.1945 21.2674C35.4195 21.4809 35.6585 21.6796 35.9116 21.8634C36.1647 22.0473 36.4275 22.2133 36.7001 22.3613C36.9677 22.5066 37.2446 22.6346 37.5309 22.7453C37.8196 22.8569 38.113 22.9491 38.4111 23.0219C38.7201 23.0973 39.0342 23.1518 39.3535 23.1855L48.1239 24.1112L41.5726 30.0152C41.3339 30.2303 41.1116 30.4593 40.9058 30.7022C40.7076 30.9361 40.5246 31.1829 40.3568 31.4426C40.1904 31.7002 40.0418 31.9663 39.9108 32.2408C39.7771 32.521 39.6619 32.8101 39.5651 33.1079C39.4683 33.4057 39.3917 33.7073 39.3351 34.0126C39.2797 34.3116 39.2436 34.6143 39.2268 34.9205C39.2099 35.2293 39.2129 35.5365 39.2357 35.8423C39.2595 36.1598 39.3047 36.4756 39.3713 36.7899L41.2012 45.4171L33.5617 41.0108C33.2834 40.8503 32.9969 40.7097 32.7023 40.589C32.4186 40.4728 32.1273 40.375 31.8284 40.2957C31.532 40.2171 31.2331 40.1579 30.9316 40.1182C30.6237 40.0776 30.3132 40.0573 30 40.0573C29.6868 40.0573 29.3763 40.0776 29.0684 40.1182C28.7669 40.1579 28.468 40.2171 28.1716 40.2957C27.8727 40.3751 27.5813 40.4728 27.2975 40.5891C27.003 40.7098 26.7166 40.8504 26.4383 41.0108L18.7988 45.4171L20.6287 36.7899C20.6953 36.4758 20.7405 36.1601 20.7642 35.8428C20.7871 35.5368 20.7901 35.2294 20.7732 34.9205C20.7564 34.6141 20.7202 34.3113 20.6648 34.012C20.6082 33.7069 20.5316 33.4056 20.4349 33.1079C20.3382 32.8102 20.223 32.5214 20.0895 32.2413C19.9584 31.9666 19.8097 31.7004 19.6432 31.4426C19.4753 31.1828 19.2922 30.9358 19.0939 30.7018C18.8881 30.459 18.666 30.2302 18.4274 30.0152L11.8761 24.1112L20.6465 23.1855C20.966 23.1518 21.2804 23.0972 21.5897 23.0217C21.8875 22.9489 22.1807 22.8568 22.4691 22.7453C22.7552 22.6347 23.032 22.5068 23.2993 22.3616C23.5721 22.2135 23.8352 22.0475 24.0884 21.8634C24.3415 21.6796 24.5806 21.4809 24.8056 21.2674C25.0264 21.0578 25.2338 20.8339 25.4275 20.5958C25.6227 20.356 25.801 20.1056 25.9622 19.8448C26.1296 19.574 26.2787 19.2919 26.4094 18.9985L30 10.9434Z" fill="rgb(80.1779,80.1779,80.1779)" fill-rule="evenodd" />
</svg>
