<svg viewBox="0 0 50 50" xmlns="http://www.w3.org/2000/svg" xmlns:xlink="http://www.w3.org/1999/xlink" width="50.000000" height="50.000000" fill="none">
	<rect id="Frame" width="50.000000" height="50.000000" x="0.000000" y="0.000000" fill="rgb(255,255,255)" fill-opacity="0" />
	<path id="Vector" d="M17.3943 6.57125C14.673 7.32541 11.9703 8.14599 9.28858 9.03225C9.04352 9.11177 8.82566 9.25911 8.65993 9.4574C8.4942 9.65569 8.38729 9.89693 8.35144 10.1535C6.76859 22.1049 10.4257 30.8247 14.7886 36.569C16.635 39.0261 18.8376 41.1902 21.3229 42.9889C22.3114 43.6904 23.1857 44.1964 23.8743 44.5213C24.2171 44.6842 24.4962 44.7972 24.7114 44.8605C24.8063 44.8895 24.9026 44.9135 25 44.9324C25.0964 44.9134 25.1918 44.8894 25.2857 44.8605C25.5029 44.7953 25.7829 44.6823 26.1257 44.5213C26.8114 44.1964 27.6886 43.6875 28.6771 42.9889C31.1624 41.1902 33.3651 39.0261 35.2114 36.569C39.5743 30.8276 43.2314 22.1049 41.6486 10.1535C41.6127 9.89693 41.5058 9.65569 41.3401 9.4574C41.1743 9.25911 40.9565 9.11177 40.7114 9.03225C38.8514 8.41988 35.7114 7.42225 32.6057 6.57412C29.4343 5.70875 26.5171 5.06763 25 5.06763C23.4857 5.06763 20.5657 5.70587 17.3943 6.57125ZM16.6343 3.61C19.7343 2.76188 23.0286 2 25 2C26.9714 2 30.2657 2.76188 33.3657 3.61C36.5371 4.4725 39.7343 5.49312 41.6143 6.11125C42.4003 6.37245 43.0972 6.85146 43.6248 7.49327C44.1524 8.13507 44.4895 8.91363 44.5971 9.7395C46.3 22.6109 42.3486 32.1501 37.5543 38.4608C35.5204 41.1596 33.0964 43.5368 30.3629 45.5131C29.4186 46.1986 28.4167 46.7999 27.3686 47.31C26.5686 47.6895 25.7086 48 25 48C24.2914 48 23.4343 47.6895 22.6314 47.31C21.5833 46.7999 20.5814 46.1986 19.6371 45.5131C16.9036 43.5368 14.4796 41.1596 12.4457 38.4608C7.65144 32.1501 3.70002 22.6109 5.40287 9.7395C5.51055 8.91363 5.84757 8.13507 6.37521 7.49327C6.90284 6.85146 7.5997 6.37245 8.38573 6.11125C11.115 5.2114 13.8653 4.37741 16.6343 3.61Z" fill="rgb(80.1779,80.1779,80.1779)" fill-rule="nonzero" />
	<path id="Vector" d="M9.28858 9.03225C9.04352 9.11177 8.82566 9.25911 8.65993 9.4574C8.4942 9.65569 8.38729 9.89693 8.35144 10.1535C6.76859 22.1049 10.4257 30.8247 14.7886 36.569C16.635 39.0261 18.8376 41.1902 21.3229 42.9889C22.3114 43.6904 23.1857 44.1964 23.8743 44.5213C24.2171 44.6842 24.4962 44.7972 24.7114 44.8605C24.8063 44.8895 24.9026 44.9135 25 44.9324C25.0964 44.9134 25.1918 44.8894 25.2857 44.8605C25.5029 44.7953 25.7829 44.6823 26.1257 44.5213C26.8114 44.1964 27.6886 43.6875 28.6771 42.9889C31.1624 41.1902 33.3651 39.0261 35.2114 36.569C39.5743 30.8276 43.2314 22.1049 41.6486 10.1535C41.6127 9.89693 41.5058 9.65569 41.3401 9.4574C41.1743 9.25911 40.9565 9.11177 40.7114 9.03225C38.8514 8.41988 35.7114 7.42225 32.6057 6.57412C29.4343 5.70875 26.5171 5.06763 25 5.06763C23.4857 5.06763 20.5657 5.70587 17.3943 6.57125C14.673 7.32541 11.9703 8.14599 9.28858 9.03225ZM25 2C26.9714 2 30.2657 2.76188 33.3657 3.61C36.5371 4.4725 39.7343 5.49312 41.6143 6.11125C42.4003 6.37245 43.0972 6.85146 43.6248 7.49327C44.1524 8.13507 44.4895 8.91363 44.5971 9.7395C46.3 22.6109 42.3486 32.1501 37.5543 38.4608C35.5204 41.1596 33.0964 43.5368 30.3629 45.5131C29.4186 46.1986 28.4167 46.7999 27.3686 47.31C26.5686 47.6895 25.7086 48 25 48C24.2914 48 23.4343 47.6895 22.6314 47.31C21.5833 46.7999 20.5814 46.1986 19.6371 45.5131C16.9036 43.5368 14.4796 41.1596 12.4457 38.4608C7.65144 32.1501 3.70002 22.6109 5.40287 9.7395C5.51055 8.91363 5.84757 8.13507 6.37521 7.49327C6.90284 6.85146 7.5997 6.37245 8.38573 6.11125C11.115 5.2114 13.8653 4.37741 16.6343 3.61C19.7343 2.76188 23.0286 2 25 2Z" fill-rule="nonzero" stroke="rgb(80.1779,80.1779,80.1779)" stroke-width="2" />
	<path id="Vector" d="M30 20.8167C30.0005 21.6068 29.6802 22.3775 29.0832 23.0227C28.4862 23.6678 27.6419 24.1557 26.6667 24.4191L27.95 29.4852C27.9967 29.6695 27.9895 29.8594 27.9288 30.0413C27.8682 30.2231 27.7556 30.3925 27.5992 30.5373C27.4428 30.682 27.2464 30.7986 27.0241 30.8786C26.8018 30.9586 26.5591 31 26.3133 31L23.6867 31C23.4412 30.9997 23.1989 30.9579 22.977 30.8778C22.7551 30.7976 22.5591 30.681 22.4031 30.5363C22.247 30.3916 22.1348 30.2223 22.0743 30.0406C22.0139 29.8589 22.0067 29.6693 22.0533 29.4852L23.3333 24.4191C22.4692 24.1857 21.7057 23.7755 21.1262 23.2331C20.5467 22.6908 20.1735 22.0372 20.0475 21.3439C19.9215 20.6505 20.0474 19.944 20.4115 19.3016C20.7756 18.6592 21.364 18.1056 22.1122 17.7013C22.8604 17.297 23.7397 17.0576 24.6541 17.0092C25.5684 16.9607 26.4826 17.1052 27.2968 17.4267C28.1109 17.7483 28.7936 18.2346 29.2704 18.8324C29.7471 19.4303 29.9995 20.1167 30 20.8167Z" fill="rgb(80.1779,80.1779,80.1779)" fill-rule="nonzero" />
</svg>
