<svg viewBox="0 0 50 50" xmlns="http://www.w3.org/2000/svg" xmlns:xlink="http://www.w3.org/1999/xlink" width="50.000000" height="50.000000" fill="none">
	<rect id="Frame" width="50.000000" height="50.000000" x="0.000000" y="0.000000" fill="rgb(255,255,255)" fill-opacity="0" />
	<path id="Vector" d="M2.70264 12.8378C2.70264 9.43303 4.05519 6.16768 6.46275 3.76012C8.87031 1.35255 12.1357 3.60072e-15 15.5405 0L42.5675 0C45.1783 0 47.2972 2.11892 47.2972 4.72973L47.2972 45.2703C47.2972 46.5247 46.7989 47.7277 45.9119 48.6147C45.0249 49.5017 43.8219 50 42.5675 50L12.8378 50C10.1498 50 7.57186 48.9322 5.67115 47.0315C3.77044 45.1308 2.70264 42.5529 2.70264 39.8649L2.70264 12.8378ZM43.2432 4.72973L43.2432 29.7297L12.8378 29.7297C10.5567 29.7297 8.45128 30.4838 6.75669 31.7568L6.75669 12.8378C6.75669 10.5082 7.68212 8.27404 9.3294 6.62676C10.9767 4.97949 13.2109 4.05405 15.5405 4.05405L24.2107 4.05405C23.4982 9.41366 23.5628 14.848 24.4026 20.1892L24.5729 21.2622C24.6322 21.6384 24.7962 21.9903 25.0463 22.2776C25.2963 22.5649 25.6223 22.7759 25.9867 22.8865C26.3512 22.9971 26.7394 23.0028 27.107 22.9029C27.4745 22.8029 27.8065 22.6015 28.0648 22.3216L31.7567 18.3216L35.4486 22.3216C35.7069 22.6015 36.0389 22.8029 36.4064 22.9029C36.7739 23.0028 37.1622 22.9971 37.5266 22.8865C37.8911 22.7759 38.217 22.5649 38.4671 22.2776C38.7172 21.9903 38.8812 21.6384 38.9405 21.2622L39.1107 20.1892C39.9507 14.8481 40.0153 9.41365 39.3026 4.05405L42.5675 4.05405C42.7467 4.05405 42.9186 4.12524 43.0453 4.25195C43.172 4.37867 43.2432 4.55053 43.2432 4.72973ZM35.2107 4.05405L28.3026 4.05405C27.7162 8.14506 27.6182 12.2913 28.0107 16.4054L29.7702 14.4973C30.0233 14.223 30.3305 14.004 30.6723 13.8543C31.0142 13.7045 31.3834 13.6272 31.7567 13.6272C32.1299 13.6272 32.4991 13.7045 32.841 13.8543C33.1829 14.004 33.4901 14.223 33.7432 14.4973L35.5026 16.4054C35.8952 12.2913 35.7972 8.14506 35.2107 4.05405ZM12.8378 33.7838L43.2432 33.7838L43.2432 45.2703C43.2432 45.4495 43.172 45.6213 43.0453 45.748C42.9186 45.8748 42.7467 45.9459 42.5675 45.9459L12.8378 45.9459C11.225 45.9459 9.67822 45.3053 8.5378 44.1648C7.39737 43.0244 6.75669 41.4777 6.75669 39.8649C6.75669 38.2521 7.39737 36.7053 8.5378 35.5649C9.67822 34.4245 11.225 33.7838 12.8378 33.7838Z" fill="rgb(80.1779,80.1779,80.1779)" fill-rule="evenodd" />
</svg>
