<svg viewBox="0 0 50 50" xmlns="http://www.w3.org/2000/svg" xmlns:xlink="http://www.w3.org/1999/xlink" width="50.000000" height="50.000000" fill="none">
	<rect id="Frame" width="50.000000" height="50.000000" x="0.000000" y="0.000000" fill="rgb(255,255,255)" fill-opacity="0" />
	<g id="Group">
		<path id="Vector" d="M25.0002 24.9998C19.2472 24.9998 14.5835 20.3361 14.5835 14.5832C14.5835 8.8302 19.2472 4.1665 25.0002 4.1665C30.7531 4.1665 35.4168 8.8302 35.4168 14.5832C35.4168 20.3361 30.7531 24.9998 25.0002 24.9998Z" stroke="rgb(80.1779,80.1779,80.1779)" stroke-width="5" />
		<path id="Vector" d="M35.4166 29.1665L36.15 29.1665C37.673 29.1669 39.1436 29.7235 40.2852 30.7317C41.4269 31.7398 42.1611 33.1302 42.35 34.6415L43.1645 41.1498C43.2378 41.7361 43.1855 42.3313 43.0112 42.8959C42.8369 43.4605 42.5444 43.9815 42.1534 44.4244C41.7623 44.8673 41.2814 45.222 40.7428 45.4649C40.2041 45.7078 39.62 45.8333 39.0291 45.8332L10.9708 45.8332C10.3799 45.8333 9.79578 45.7078 9.25714 45.4649C8.7185 45.222 8.23767 44.8673 7.84658 44.4244C7.45548 43.9815 7.16306 43.4605 6.98872 42.8959C6.81438 42.3313 6.76211 41.7361 6.83538 41.1498L7.64788 34.6415C7.83683 33.1295 8.57166 31.7385 9.7142 30.7303C10.8567 29.722 12.3283 29.1659 13.852 29.1665L14.5833 29.1665" fill-rule="nonzero" stroke="rgb(80.1779,80.1779,80.1779)" stroke-linecap="round" stroke-linejoin="round" stroke-width="5" />
	</g>
</svg>
